<svg id="Layer_3" height="512" viewBox="0 0 64 64" width="512" xmlns="http://www.w3.org/2000/svg" data-name="Layer 3"><path d="m4 48v4a6 6 0 0 0 6 6h36a6 6 0 0 0 6-6v-4z" fill="#78a0d4"/><path d="m52 52v-4h-40.038a21.976 21.976 0 0 0 18.438 10h15.6a6 6 0 0 0 6-6z" fill="#93bee5"/><path d="m12 42a10 10 0 0 1 4-8l.561-.374a19.955 19.955 0 0 0 9.439 2.374 19.939 19.939 0 0 0 9.438-2.374l.562.374a10 10 0 0 1 4 8" fill="#f4a93c"/><path d="m36 34-.562-.375a19.95 19.95 0 0 1 -18.877 0l-.14.093a19.368 19.368 0 0 0 15.885 8.282h7.694a10 10 0 0 0 -4-8z" fill="#f6b940"/><path d="m39.784 30.473.765-.732a6.257 6.257 0 0 0 1.451-4.007 6.257 6.257 0 0 0 -.892-3.221l-2.108-3.513a13 13 0 0 0 -26 0l-2.108 3.513a6.257 6.257 0 0 0 -.892 3.221 6.257 6.257 0 0 0 1.451 4.007l.765.732a19.952 19.952 0 0 0 13.784 5.527 19.952 19.952 0 0 0 13.784-5.527z" fill="#f4a93c"/><path d="m39 19a12.987 12.987 0 0 0 -21-10.233v2.856a24.382 24.382 0 0 0 15.743 22.8 19.956 19.956 0 0 0 6.041-3.948l.765-.732a6.26 6.26 0 0 0 .559-7.228z" fill="#f6b940"/><path d="m37.967 13.912a13.02 13.02 0 0 0 -9.967-7.759l10.957-4.053a1.512 1.512 0 0 1 .553-.1 1.466 1.466 0 0 1 1.469 1.7z" fill="#f4a93c"/><path d="m24 6.153-10.957-4.053a1.512 1.512 0 0 0 -.553-.1 1.466 1.466 0 0 0 -1.469 1.7l3.01 10.2a13.014 13.014 0 0 1 9.989-7.75z" fill="#f4a93c"/><g fill="#fbe1ca"><path d="m35.528 16h8.944v2h-8.944z" transform="matrix(.894 -.447 .447 .894 -3.38 19.683)"/><path d="m39 22.528h2v8.944h-2z" transform="matrix(.447 -.894 .894 .447 -2.038 50.702)"/><path d="m37 21h8v2h-8z"/><path d="m11 12.528h2v8.944h-2z" transform="matrix(.447 -.894 .894 .447 -8.572 20.13)"/><path d="m7.528 26h8.944v2h-8.944z" transform="matrix(.894 -.447 .447 .894 -10.808 8.217)"/><path d="m7 21h8v2h-8z"/></g><path d="m29 29a1 1 0 0 1 -2 0v-3h-2v3a1 1 0 0 1 -2 0h-2a2.987 2.987 0 0 0 5 2.22 2.987 2.987 0 0 0 5-2.22z" fill="#d5883e"/><path d="m23.293 18.707-1.293-1.293a1.465 1.465 0 0 0 -2 0l-1.293 1.293-1.414-1.414 1.293-1.293a3.5 3.5 0 0 1 4.828 0l1.293 1.293z" fill="#d5883e"/><path d="m33.293 18.707-1.293-1.293a1.465 1.465 0 0 0 -2 0l-1.293 1.293-1.414-1.414 1.293-1.293a3.5 3.5 0 0 1 4.828 0l1.293 1.293z" fill="#d5883e"/><circle cx="26" cy="25" fill="#d5883e" r="2"/><path d="m26 23a1.99 1.99 0 0 0 -.82.18 1.992 1.992 0 0 0 2.64 2.64 1.992 1.992 0 0 0 -1.82-2.82z" fill="#e29454"/><path d="m21 7.014v2.986h2v-3.64a12.887 12.887 0 0 0 -2 .654z" fill="#d5883e"/><path d="m26 6c-.337 0-.67.017-1 .043v3.957h2v-3.949c-.331-.026-.662-.051-1-.051z" fill="#d5883e"/><path d="m29 6.362v3.638h2v-3a12.871 12.871 0 0 0 -2-.638z" fill="#d5883e"/><path d="m36.322 11.1 1.978-4.369a1.246 1.246 0 0 0 -1.718-1.615l-4.538 2.4a13.059 13.059 0 0 1 4.278 3.584z" fill="#fbe1ca"/><path d="m20 7.492-4.49-2.376a1.246 1.246 0 0 0 -1.718 1.615l1.943 4.3a13.028 13.028 0 0 1 4.265-3.539z" fill="#fbe1ca"/><rect fill="#e2e7f6" height="6" rx="3" width="52" x="2" y="42"/><path d="m51 42h-45a3 3 0 0 0 3 3h45a3 3 0 0 0 -3-3z" fill="#f2f2f2"/><circle cx="14" cy="58" fill="#474747" r="4"/><circle cx="42" cy="58" fill="#474747" r="4"/><path d="m13 57h2v2h-2z" fill="#b5b5b5"/><path d="m41 57h2v2h-2z" fill="#b5b5b5"/><path d="m47 42v-34a6 6 0 0 1 6-6h9v4h-9a2 2 0 0 0 -2 2v34" fill="#b5b5b5"/><path d="m28 32a3 3 0 0 0 3-3h-2a1 1 0 0 1 -2 0v-1.184a3 3 0 1 0 -2 0v1.184a1 1 0 0 1 -2 0h-2a2.987 2.987 0 0 0 5 2.22 2.981 2.981 0 0 0 2 .78zm-2-8a1 1 0 1 1 -1 1 1 1 0 0 1 1-1z"/><path d="m22 17.414 1.293 1.293 1.414-1.414-1.293-1.293a3.5 3.5 0 0 0 -4.828 0l-1.293 1.293 1.414 1.414 1.293-1.292a1.447 1.447 0 0 1 2-.001z"/><path d="m30 17.415a1.447 1.447 0 0 1 2 0l1.293 1.293 1.414-1.414-1.293-1.294a3.5 3.5 0 0 0 -4.828 0l-1.293 1.293 1.414 1.414z"/><path d="m13 57h2v2h-2z"/><path d="m41 57h2v2h-2z"/><path d="m62 1h-9a7.008 7.008 0 0 0 -7 7v33h-5.059a11.054 11.054 0 0 0 -3.71-7.266 21.127 21.127 0 0 0 3.244-2.534l.765-.732a.857.857 0 0 0 .077-.082 7.216 7.216 0 0 0 .8-1.205l1.437.719.894-1.79-1.636-.818a6.9 6.9 0 0 0 -.355-4.292h2.543v-2h-3.633l-1.367-2.282c0-.2-.028-.385-.04-.578l4.49-2.245-.894-1.79-3.872 1.936a13.848 13.848 0 0 0 -.665-2.153l2.922-9.909a.767.767 0 0 0 .027-.115 2.427 2.427 0 0 0 -.541-1.979 2.591 2.591 0 0 0 -2.814-.719l-10.753 3.972a12.6 12.6 0 0 0 -3.72 0l-10.733-3.965a2.551 2.551 0 0 0 -2.831.712 2.427 2.427 0 0 0 -.541 1.979.767.767 0 0 0 .027.115l2.922 9.909a13.848 13.848 0 0 0 -.665 2.153l-3.872-1.936-.894 1.795 4.49 2.245c-.012.193-.036.383-.04.578l-1.369 2.277h-3.634v2h2.543a6.9 6.9 0 0 0 -.354 4.287l-1.636.818.894 1.79 1.437-.719a7.216 7.216 0 0 0 .8 1.205.857.857 0 0 0 .077.082l.765.733a21.127 21.127 0 0 0 3.244 2.538 11.054 11.054 0 0 0 -3.711 7.266h-6.059a3.987 3.987 0 0 0 -2 7.444v3.556a7.007 7.007 0 0 0 6.094 6.935 5 5 0 0 0 9.806.065h18.2a5 5 0 0 0 9.805-.065 7.007 7.007 0 0 0 6.095-6.935v-3.556a3.974 3.974 0 0 0 -1-7.3v-33.144a1 1 0 0 1 1-1h9a1 1 0 0 0 1-1v-4a1 1 0 0 0 -1-1zm-22.679 2.035a.56.56 0 0 1 .574.14.432.432 0 0 1 .1.311l-2.311 7.837a14.067 14.067 0 0 0 -6.452-5.3zm-27.321.451a.432.432 0 0 1 .1-.311.5.5 0 0 1 .591-.133l8.068 2.981a14.067 14.067 0 0 0 -6.452 5.3zm.184 25.573a5.234 5.234 0 0 1 -.521-.773l4.784-2.386-.894-1.79-4.5 2.25a5.151 5.151 0 0 1 -.053-.626 5.266 5.266 0 0 1 .749-2.706l.017-.028h3.234v-2h-2.034l.891-1.485a.977.977 0 0 0 .128-.4l1.568.784.894-1.79-2.262-1.131a12.02 12.02 0 0 1 6.815-8.873v1.895h2v-2.6a11.89 11.89 0 0 1 2-.344v2.944h2v-2.949a11.89 11.89 0 0 1 2 .349v2.6h2v-1.895a12.02 12.02 0 0 1 6.815 8.869l-2.262 1.131.894 1.79 1.568-.784a.977.977 0 0 0 .128.4l.891 1.489h-2.034v2h3.235l.016.027a5.272 5.272 0 0 1 .749 2.707 5.151 5.151 0 0 1 -.054.621l-4.5-2.25-.894 1.79 4.783 2.391a5.234 5.234 0 0 1 -.521.773l-.723.691a18.949 18.949 0 0 1 -26.184 0zm4.416 5.741-.035-.046a20.936 20.936 0 0 0 18.868 0l-.033.046a9.047 9.047 0 0 1 3.541 6.2h-25.882a9.047 9.047 0 0 1 3.541-6.2zm-2.6 26.2a3 3 0 1 1 3-3 3 3 0 0 1 -3 3zm28 0a3 3 0 1 1 3-3 3 3 0 0 1 -3 3zm9-9a5 5 0 0 1 -4.127 4.912 5 5 0 0 0 -9.773.088h-18.2a5 5 0 0 0 -9.772-.088 5 5 0 0 1 -4.128-4.912v-3h46zm2-7a2 2 0 0 1 -2 2h-46a2 2 0 0 1 0-4h46a2 2 0 0 1 2 2zm8-40h-8a3 3 0 0 0 -3 3v33h-2v-33a5.006 5.006 0 0 1 5-5h8z"/></svg>